<svg xmlns="http://www.w3.org/2000/svg" width="1040" height="670" viewBox="0 0 1040 670">
<rect width="100%" height="100%" fill="#ffffff"/>
<style>text{font-family:Arial,Helvetica,sans-serif;font-size:13px}.title{font-size:18px;font-weight:700}.axis{stroke:#999;stroke-width:1}.grid{stroke:#e5e7eb;stroke-width:1}</style>
<text class="title" x="24" y="26">Member C Chaos Load Test SLA Curves</text>
<text x="24" y="60" font-weight="700">TPS (requests/sec)</text>
<line class="axis" x1="74" y1="204" x2="1016" y2="204"/>
<line class="axis" x1="74" y1="78" x2="74" y2="204"/>
<line class="grid" x1="74" y1="78" x2="1016" y2="78"/>
<text x="12" y="82">1.30</text>
<text x="34" y="208">0</text>
<polyline points="74.0,194.3 123.6,194.3 173.2,184.6 222.7,194.3 272.3,165.2 321.9,155.5 371.5,184.6 421.1,184.6 470.6,184.6 520.2,126.5 569.8,78.0 619.4,97.4 668.9,107.1 718.5,97.4 768.1,97.4 817.7,78.0 867.3,87.7 916.8,97.4 966.4,78.0 1016.0,145.8" fill="none" stroke="#1f77b4" stroke-width="2.5" stroke-linejoin="round" stroke-linecap="round"/>
<text x="24" y="270" font-weight="700">Error Rate (fraction)</text>
<line class="axis" x1="74" y1="414" x2="1016" y2="414"/>
<line class="axis" x1="74" y1="288" x2="74" y2="414"/>
<line class="grid" x1="74" y1="288" x2="1016" y2="288"/>
<text x="12" y="292">1.00</text>
<text x="34" y="418">0</text>
<polyline points="74.0,288.0 123.6,288.0 173.2,288.0 222.7,288.0 272.3,288.0 321.9,288.0 371.5,288.0 421.1,288.0 470.6,288.0 520.2,288.0 569.8,288.0 619.4,288.0 668.9,288.0 718.5,288.0 768.1,288.0 817.7,288.0 867.3,288.0 916.8,288.0 966.4,288.0 1016.0,288.0" fill="none" stroke="#d62728" stroke-width="2.5" stroke-linejoin="round" stroke-linecap="round"/>
<text x="24" y="480" font-weight="700">p95 Latency (ms)</text>
<line class="axis" x1="74" y1="624" x2="1016" y2="624"/>
<line class="axis" x1="74" y1="498" x2="74" y2="624"/>
<line class="grid" x1="74" y1="498" x2="1016" y2="498"/>
<text x="12" y="502">31402.00</text>
<text x="34" y="628">0</text>
<polyline points="74.0,531.5 123.6,507.6 173.2,540.5 222.7,580.5 272.3,607.3 321.9,498.0 371.5,510.9 421.1,534.4 470.6,579.8 520.2,607.4 569.8,607.5 619.4,607.5 668.9,604.4 718.5,605.1 768.1,604.0 817.7,606.5 867.3,608.1 916.8,607.3 966.4,608.1 1016.0,609.6" fill="none" stroke="#555555" stroke-width="2.5" stroke-linejoin="round" stroke-linecap="round"/>
</svg>