<svg xmlns="http://www.w3.org/2000/svg" width="1040" height="670" viewBox="0 0 1040 670">
<rect width="100%" height="100%" fill="#ffffff"/>
<style>text{font-family:Arial,Helvetica,sans-serif;font-size:13px}.title{font-size:18px;font-weight:700}.axis{stroke:#999;stroke-width:1}.grid{stroke:#e5e7eb;stroke-width:1}</style>
<text class="title" x="24" y="26">Checkout Chaos Load Test SLA Curves</text>
<text x="24" y="60" font-weight="700">TPS (requests/sec)</text>
<line class="axis" x1="74" y1="204" x2="1016" y2="204"/>
<line class="axis" x1="74" y1="78" x2="74" y2="204"/>
<line class="grid" x1="74" y1="78" x2="1016" y2="78"/>
<text x="12" y="82">0.50</text>
<text x="34" y="208">0</text>
<polyline points="74.0,178.8 86.2,153.6 98.5,178.8 110.7,178.8 122.9,103.2 147.4,178.8 159.6,128.4 171.9,103.2 184.1,153.6 196.3,178.8 220.8,153.6 245.3,103.2 257.5,153.6 269.7,153.6 282.0,153.6 318.7,153.6 330.9,103.2 343.1,178.8 355.4,153.6 367.6,178.8 379.8,153.6 392.1,128.4 404.3,153.6 416.5,178.8 428.8,153.6 441.0,178.8 453.2,153.6 465.5,103.2 489.9,153.6 502.2,178.8 526.6,128.4 538.9,178.8 551.1,178.8 563.4,128.4 575.6,178.8 587.8,178.8 600.1,178.8 612.3,178.8 624.5,178.8 636.8,153.6 649.0,178.8 661.2,78.0 685.7,178.8 697.9,178.8 710.2,153.6 722.4,153.6 734.6,103.2 759.1,178.8 771.3,153.6 783.6,128.4 795.8,128.4 808.0,178.8 820.3,178.8 832.5,153.6 844.7,178.8 857.0,153.6 869.2,78.0 881.4,178.8 893.7,178.8 905.9,153.6 918.1,178.8 930.4,178.8 942.6,128.4 954.8,153.6 979.3,128.4 1003.8,178.8 1016.0,128.4" fill="none" stroke="#1f77b4" stroke-width="2.5" stroke-linejoin="round" stroke-linecap="round"/>
<text x="24" y="270" font-weight="700">Error Rate (fraction)</text>
<line class="axis" x1="74" y1="414" x2="1016" y2="414"/>
<line class="axis" x1="74" y1="288" x2="74" y2="414"/>
<line class="grid" x1="74" y1="288" x2="1016" y2="288"/>
<text x="12" y="292">1.00</text>
<text x="34" y="418">0</text>
<polyline points="74.0,414.0 86.2,414.0 98.5,414.0 110.7,414.0 122.9,414.0 147.4,288.0 159.6,414.0 171.9,414.0 184.1,414.0 196.3,288.0 220.8,351.0 245.3,414.0 257.5,288.0 269.7,414.0 282.0,414.0 318.7,414.0 330.9,382.5 343.1,414.0 355.4,351.0 367.6,414.0 379.8,414.0 392.1,414.0 404.3,414.0 416.5,414.0 428.8,414.0 441.0,288.0 453.2,351.0 465.5,382.5 489.9,414.0 502.2,288.0 526.6,414.0 538.9,414.0 551.1,288.0 563.4,330.0 575.6,288.0 587.8,414.0 600.1,288.0 612.3,414.0 624.5,288.0 636.8,351.0 649.0,288.0 661.2,388.8 685.7,414.0 697.9,414.0 710.2,414.0 722.4,414.0 734.6,414.0 759.1,414.0 771.3,351.0 783.6,414.0 795.8,414.0 808.0,288.0 820.3,288.0 832.5,351.0 844.7,414.0 857.0,414.0 869.2,414.0 881.4,414.0 893.7,414.0 905.9,414.0 918.1,414.0 930.4,288.0 942.6,414.0 954.8,414.0 979.3,288.0 1003.8,414.0 1016.0,372.0" fill="none" stroke="#d62728" stroke-width="2.5" stroke-linejoin="round" stroke-linecap="round"/>
<text x="24" y="480" font-weight="700">p95 Latency (ms)</text>
<line class="axis" x1="74" y1="624" x2="1016" y2="624"/>
<line class="axis" x1="74" y1="498" x2="74" y2="624"/>
<line class="grid" x1="74" y1="498" x2="1016" y2="498"/>
<text x="12" y="502">101353.00</text>
<text x="34" y="628">0</text>
<polyline points="74.0,605.3 86.2,594.7 98.5,602.5 110.7,583.3 122.9,582.4 147.4,581.6 159.6,535.9 171.9,530.2 184.1,540.1 196.3,584.4 220.8,568.4 245.3,520.8 257.5,555.4 269.7,499.7 282.0,522.5 318.7,582.5 330.9,565.8 343.1,565.1 355.4,556.9 367.6,562.0 379.8,564.2 392.1,557.2 404.3,566.2 416.5,559.5 428.8,555.4 441.0,538.6 453.2,558.2 465.5,518.3 489.9,502.1 502.2,498.0 526.6,551.9 538.9,543.5 551.1,543.2 563.4,523.0 575.6,539.3 587.8,521.2 600.1,564.2 612.3,577.7 624.5,553.9 636.8,531.7 649.0,557.8 661.2,546.3 685.7,587.2 697.9,561.3 710.2,555.8 722.4,558.4 734.6,560.5 759.1,563.7 771.3,548.8 783.6,539.1 795.8,547.8 808.0,535.0 820.3,566.8 832.5,592.8 844.7,568.9 857.0,566.9 869.2,552.8 881.4,555.4 893.7,550.8 905.9,537.8 918.1,562.2 930.4,555.7 942.6,552.8 954.8,555.2 979.3,541.9 1003.8,568.2 1016.0,555.4" fill="none" stroke="#555555" stroke-width="2.5" stroke-linejoin="round" stroke-linecap="round"/>
</svg>