<svg xmlns="http://www.w3.org/2000/svg" width="1040" height="670" viewBox="0 0 1040 670">
<rect width="100%" height="100%" fill="#ffffff"/>
<style>text{font-family:Arial,Helvetica,sans-serif;font-size:13px}.title{font-size:18px;font-weight:700}.axis{stroke:#999;stroke-width:1}.grid{stroke:#e5e7eb;stroke-width:1}</style>
<text class="title" x="24" y="26">Member C Chaos Load Test SLA Curves</text>
<text x="24" y="60" font-weight="700">TPS (requests/sec)</text>
<line class="axis" x1="74" y1="204" x2="1016" y2="204"/>
<line class="axis" x1="74" y1="78" x2="74" y2="204"/>
<line class="grid" x1="74" y1="78" x2="1016" y2="78"/>
<text x="12" y="82">0.10</text>
<text x="34" y="208">0</text>
<polyline points="74.0,78.0 1016.0,78.0" fill="none" stroke="#1f77b4" stroke-width="2.5" stroke-linejoin="round" stroke-linecap="round"/>
<text x="24" y="270" font-weight="700">Error Rate (fraction)</text>
<line class="axis" x1="74" y1="414" x2="1016" y2="414"/>
<line class="axis" x1="74" y1="288" x2="74" y2="414"/>
<line class="grid" x1="74" y1="288" x2="1016" y2="288"/>
<text x="12" y="292">1.00</text>
<text x="34" y="418">0</text>
<polyline points="74.0,288.0 1016.0,414.0" fill="none" stroke="#d62728" stroke-width="2.5" stroke-linejoin="round" stroke-linecap="round"/>
<text x="24" y="480" font-weight="700">p95 Latency (ms)</text>
<line class="axis" x1="74" y1="624" x2="1016" y2="624"/>
<line class="axis" x1="74" y1="498" x2="74" y2="624"/>
<line class="grid" x1="74" y1="498" x2="1016" y2="498"/>
<text x="12" y="502">12584.00</text>
<text x="34" y="628">0</text>
<polyline points="74.0,498.0 1016.0,571.2" fill="none" stroke="#555555" stroke-width="2.5" stroke-linejoin="round" stroke-linecap="round"/>
</svg>